<svg width="79" height="39" viewBox="0.025569915771484375 0.11363983154296875 78.94886016845703 38.77272033691406" fill="none" xmlns="http://www.w3.org/2000/svg">
<path d="M0 14.5549V0H1.7625V6.48147H9.52321V0H11.2857V14.5549H9.52321V8.04498H1.7625V14.5549H0Z" fill="#07020D"/>
<path d="M19.1637 14.7823C18.1119 14.7823 17.2046 14.5501 16.4418 14.0858C15.6837 13.6168 15.0986 12.9629 14.6864 12.1243C14.2789 11.281 14.0752 10.3002 14.0752 9.18208C14.0752 8.06393 14.2789 7.07845 14.6864 6.22562C15.0986 5.36806 15.6718 4.70001 16.4062 4.22148C17.1453 3.73822 18.0076 3.49658 18.9931 3.49658C19.5617 3.49658 20.1231 3.59134 20.6774 3.78086C21.2318 3.97037 21.7364 4.27834 22.1912 4.70475C22.6461 5.12642 23.0085 5.6855 23.2786 6.38197C23.5486 7.07845 23.6837 7.93601 23.6837 8.95466V9.66535H15.2691V8.21555H21.978C21.978 7.59962 21.8548 7.05002 21.6084 6.56675C21.3668 6.08348 21.0209 5.70208 20.5708 5.42254C20.1255 5.14301 19.5996 5.00324 18.9931 5.00324C18.3251 5.00324 17.747 5.16907 17.259 5.50072C16.7758 5.82764 16.4038 6.25405 16.1433 6.77996C15.8827 7.30587 15.7524 7.86968 15.7524 8.47139V9.43793C15.7524 10.2623 15.8945 10.9612 16.1788 11.5345C16.4678 12.103 16.8682 12.5365 17.3799 12.835C17.8916 13.1288 18.4862 13.2756 19.1637 13.2756C19.6043 13.2756 20.0023 13.214 20.3576 13.0909C20.7177 12.9629 21.0281 12.7734 21.2886 12.5223C21.5492 12.2665 21.7506 11.949 21.8927 11.57L23.5131 12.0248C23.3425 12.5744 23.0559 13.0577 22.6532 13.4746C22.2504 13.8868 21.753 14.209 21.1607 14.4412C20.5685 14.6686 19.9028 14.7823 19.1637 14.7823Z" fill="#07020D"/>
<path d="M27.9122 0V14.5549H26.235V0H27.9122Z" fill="#07020D"/>
<path d="M32.6614 0V14.5549H30.9842V0H32.6614Z" fill="#07020D"/>
<path d="M40.168 14.7823C39.1826 14.7823 38.3179 14.5478 37.574 14.0787C36.8349 13.6097 36.2569 12.9535 35.84 12.1101C35.4278 11.2668 35.2217 10.2813 35.2217 9.15365C35.2217 8.01655 35.4278 7.02396 35.84 6.17587C36.2569 5.32779 36.8349 4.66922 37.574 4.20016C38.3179 3.73111 39.1826 3.49658 40.168 3.49658C41.1535 3.49658 42.0158 3.73111 42.7549 4.20016C43.4988 4.66922 44.0768 5.32779 44.489 6.17587C44.906 7.02396 45.1144 8.01655 45.1144 9.15365C45.1144 10.2813 44.906 11.2668 44.489 12.1101C44.0768 12.9535 43.4988 13.6097 42.7549 14.0787C42.0158 14.5478 41.1535 14.7823 40.168 14.7823ZM40.168 13.2756C40.9166 13.2756 41.5326 13.0838 42.0158 12.7C42.4991 12.3162 42.8568 11.8116 43.089 11.1862C43.3211 10.5608 43.4372 9.88329 43.4372 9.15365C43.4372 8.42401 43.3211 7.74412 43.089 7.11398C42.8568 6.48384 42.4991 5.97451 42.0158 5.586C41.5326 5.19749 40.9166 5.00324 40.168 5.00324C39.4195 5.00324 38.8035 5.19749 38.3203 5.586C37.837 5.97451 37.4793 6.48384 37.2471 7.11398C37.015 7.74412 36.8989 8.42401 36.8989 9.15365C36.8989 9.88329 37.015 10.5608 37.2471 11.1862C37.4793 11.8116 37.837 12.3162 38.3203 12.7C38.8035 13.0838 39.4195 13.2756 40.168 13.2756Z" fill="#07020D"/>
<path d="M53.5307 14.5549V0H58.4487C59.5905 0 60.5239 0.206099 61.2488 0.618298C61.9785 1.02576 62.5186 1.57773 62.8692 2.2742C63.2198 2.97067 63.3951 3.74769 63.3951 4.60525C63.3951 5.46282 63.2198 6.2422 62.8692 6.94342C62.5233 7.64463 61.9879 8.2037 61.263 8.62064C60.5381 9.03284 59.6095 9.23894 58.4771 9.23894H54.9521V7.67542H58.4203C59.202 7.67542 59.8298 7.54039 60.3036 7.27033C60.7774 7.00027 61.1209 6.63545 61.3341 6.17587C61.552 5.71156 61.661 5.18802 61.661 4.60525C61.661 4.02249 61.552 3.50132 61.3341 3.04174C61.1209 2.58216 60.775 2.22208 60.2965 1.9615C59.818 1.69617 59.1831 1.56351 58.3918 1.56351H55.2933V14.5549H53.5307Z" fill="#07020D"/>
<path d="M67.6841 0V14.5549H66.0069V0H67.6841Z" fill="#07020D"/>
<path d="M70.4433 14.5549V13.2756L76.6405 5.31594V5.20223H70.6423V3.63872H78.801V4.97481L72.7744 12.8777V12.9914H79V14.5549H70.4433Z" fill="#07020D"/>
<path d="M29.5557 28.5639H27.7932C27.689 28.057 27.5066 27.6116 27.246 27.2279C26.9901 26.8441 26.6774 26.5219 26.3079 26.2613C25.943 25.996 25.538 25.797 25.0926 25.6643C24.6472 25.5317 24.1829 25.4653 23.6996 25.4653C22.8184 25.4653 22.0201 25.688 21.3046 26.1334C20.5939 26.5788 20.0278 27.235 19.6061 28.102C19.1892 28.969 18.9807 30.0327 18.9807 31.293C18.9807 32.5533 19.1892 33.6169 19.6061 34.484C20.0278 35.351 20.5939 36.0072 21.3046 36.4526C22.0201 36.8979 22.8184 37.1206 23.6996 37.1206C24.1829 37.1206 24.6472 37.0543 25.0926 36.9216C25.538 36.789 25.943 36.5923 26.3079 36.3318C26.6774 36.0664 26.9901 35.7419 27.246 35.3581C27.5066 34.9696 27.689 34.5242 27.7932 34.022H29.5557C29.423 34.7659 29.1814 35.4316 28.8308 36.0191C28.4802 36.6066 28.0443 37.1064 27.5231 37.5186C27.002 37.9261 26.4168 38.2364 25.7677 38.4496C25.1234 38.6628 24.434 38.7694 23.6996 38.7694C22.4583 38.7694 21.3544 38.4662 20.3878 37.8597C19.4213 37.2533 18.6609 36.391 18.1065 35.2728C17.5522 34.1547 17.275 32.8281 17.275 31.293C17.275 29.7579 17.5522 28.4313 18.1065 27.3131C18.6609 26.195 19.4213 25.3327 20.3878 24.7262C21.3544 24.1198 22.4583 23.8166 23.6996 23.8166C24.434 23.8166 25.1234 23.9232 25.7677 24.1364C26.4168 24.3496 27.002 24.6623 27.5231 25.0745C28.0443 25.4819 28.4802 25.9794 28.8308 26.5669C29.1814 27.1497 29.423 27.8154 29.5557 28.5639Z" fill="#07020D"/>
<path d="M33.8536 24.0155V38.5704H32.1764V24.0155H33.8536Z" fill="#07020D"/>
<path d="M36.9255 38.5704V27.6543H38.6028V38.5704H36.9255ZM37.7784 25.8349C37.4514 25.8349 37.1695 25.7236 36.9326 25.5009C36.7005 25.2782 36.5844 25.0105 36.5844 24.6978C36.5844 24.3851 36.7005 24.1174 36.9326 23.8947C37.1695 23.672 37.4514 23.5607 37.7784 23.5607C38.1053 23.5607 38.3848 23.672 38.617 23.8947C38.8539 24.1174 38.9723 24.3851 38.9723 24.6978C38.9723 25.0105 38.8539 25.2782 38.617 25.5009C38.3848 25.7236 38.1053 25.8349 37.7784 25.8349Z" fill="#07020D"/>
<path d="M46.1094 38.7978C45.086 38.7978 44.2048 38.5562 43.4656 38.0729C42.7265 37.5897 42.158 36.924 41.76 36.0759C41.362 35.2278 41.163 34.2589 41.163 33.1692C41.163 32.0605 41.3667 31.0821 41.7742 30.2341C42.1864 29.3812 42.7597 28.7156 43.4941 28.237C44.2332 27.7538 45.0955 27.5121 46.081 27.5121C46.8485 27.5121 47.5402 27.6543 48.1562 27.9385C48.7721 28.2228 49.2767 28.6208 49.6699 29.1325C50.0632 29.6442 50.3072 30.2412 50.4019 30.9234H48.7247C48.5968 30.4259 48.3125 29.9853 47.8719 29.6015C47.436 29.213 46.8485 29.0188 46.1094 29.0188C45.4556 29.0188 44.8823 29.1893 44.3895 29.5305C43.9015 29.8669 43.5201 30.343 43.2453 30.959C42.9753 31.5702 42.8402 32.2879 42.8402 33.1123C42.8402 33.9557 42.9729 34.6901 43.2382 35.3155C43.5083 35.9409 43.8873 36.4265 44.3753 36.7724C44.8681 37.1183 45.4461 37.2912 46.1094 37.2912C46.5453 37.2912 46.9409 37.2154 47.2962 37.0638C47.6516 36.9122 47.9524 36.6942 48.1988 36.4099C48.4452 36.1257 48.6205 35.7845 48.7247 35.3865H50.4019C50.3072 36.0309 50.0727 36.6113 49.6984 37.1277C49.3288 37.6394 48.8384 38.0469 48.2272 38.3501C47.6208 38.6486 46.9148 38.7978 46.1094 38.7978Z" fill="#07020D"/>
<path d="M54.4173 34.5906L54.3889 32.5154H54.73L59.5059 27.6543H61.5811L56.4925 32.7996H56.3504L54.4173 34.5906ZM52.8538 38.5704V24.0155H54.531V38.5704H52.8538ZM59.7901 38.5704L55.526 33.1692L56.72 32.0037L61.9222 38.5704H59.7901Z" fill="#07020D"/>
</svg>
